<?xml version="1.0" standalone="no"?>
<!DOCTYPE svg PUBLIC "-//W3C//DTD SVG 1.1//EN" "http://www.w3.org/Graphics/SVG/1.1/DTD/svg11.dtd" >
<svg xmlns="http://www.w3.org/2000/svg">
<metadata>
Created by FontForge 20120731 at Sat Oct 31 20:54:13 2015
 By Ads
</metadata>
<defs>
<font id="iconfont" horiz-adv-x="1024" >
  <font-face 
    font-family="iconfont"
    font-weight="500"
    font-stretch="normal"
    units-per-em="1024"
    panose-1="2 0 6 3 0 0 0 0 0 0"
    ascent="812"
    descent="-212"
    x-height="792"
    bbox="-0.367816 -212.333 1280 812.333"
    underline-thickness="50"
    underline-position="-100"
    unicode-range="U+0078-E681"
  />
<missing-glyph horiz-adv-x="374" 
d="M34 0v682h272v-682h-272zM68 34h204v614h-204v-614z" />
    <glyph glyph-name=".notdef" horiz-adv-x="374" 
d="M34 0v682h272v-682h-272zM68 34h204v614h-204v-614z" />
    <glyph glyph-name=".null" horiz-adv-x="0" 
 />
    <glyph glyph-name="nonmarkingreturn" horiz-adv-x="341" 
 />
    <glyph glyph-name="x" unicode="x" horiz-adv-x="1001" 
d="M281 543q-27 -1 -53 -1h-83q-18 0 -36.5 -6t-32.5 -18.5t-23 -32t-9 -45.5v-76h912v41q0 16 -0.5 30t-0.5 18q0 13 -5 29t-17 29.5t-31.5 22.5t-49.5 9h-133v-97h-438v97zM955 310v-52q0 -23 0.5 -52t0.5 -58t-10.5 -47.5t-26 -30t-33 -16t-31.5 -4.5q-14 -1 -29.5 -0.5
t-29.5 0.5h-32l-45 128h-439l-44 -128h-29h-34q-20 0 -45 1q-25 0 -41 9.5t-25.5 23t-13.5 29.5t-4 30v167h911zM163 247q-12 0 -21 -8.5t-9 -21.5t9 -21.5t21 -8.5q13 0 22 8.5t9 21.5t-9 21.5t-22 8.5zM316 123q-8 -26 -14 -48q-5 -19 -10.5 -37t-7.5 -25t-3 -15t1 -14.5
t9.5 -10.5t21.5 -4h37h67h81h80h64h36q23 0 34 12t2 38q-5 13 -9.5 30.5t-9.5 34.5q-5 19 -11 39h-368zM336 498v228q0 11 2.5 23t10 21.5t20.5 15.5t34 6h188q31 0 51.5 -14.5t20.5 -52.5v-227h-327z" />
    <glyph glyph-name="uniE600" unicode="&#xe600;" 
d="M192 812v-1024h768v1024h-768zM576 556q53 0 90.5 -37.5t37.5 -90.5t-37.5 -90.5t-90.5 -37.5t-90.5 37.5t-37.5 90.5t37.5 90.5t90.5 37.5zM768 44h-384v64q0 53 37.5 90.5t90.5 37.5h128q53 0 90.5 -37.5t37.5 -90.5v-64zM64 748h96v-192h-96v192zM64 492h96v-192h-96
v192zM64 236h96v-192h-96v192zM64 -20h96v-192h-96v192z" />
    <glyph glyph-name="uniE601" unicode="&#xe601;" 
d="M896 556h-192v128q0 26 -19 45t-45 19h-256q-26 0 -45 -19t-19 -45v-128h-192q-53 0 -90.5 -37.5t-37.5 -90.5v-512q0 -53 37.5 -90.5t90.5 -37.5h768q53 0 90.5 37.5t37.5 90.5v512q0 53 -37.5 90.5t-90.5 37.5zM384 684h256v-128h-256v128zM768 108h-192v-192h-128v192
h-192v128h192v192h128v-192h192v-128z" />
    <glyph glyph-name="uniE602" unicode="&#xe602;" 
d="M512 684q-122 0 -225 -60t-163 -163t-60 -225t60 -225t163 -163t225 -60t225 60t163 163t60 225t-60 225t-163 163t-225 60zM512 -124q-98 0 -181 48t-131 131t-48 181t48 181t131 131t181 48t181 -48t131 -131t48 -181t-48 -181t-131 -131t-181 -48zM935 525
q25 44 25 95q0 80 -56 136t-136 56q-46 0 -85.5 -20t-66.5 -55q65 -13 124.5 -43t108.5 -72.5t86 -96.5zM408 737q-27 35 -66.5 55t-85.5 20q-80 0 -136 -56t-56 -136q0 -51 25 -95q56 81 138.5 136.5t180.5 75.5zM512 236v256h-64v-320h256v64h-192z" />
    <glyph glyph-name="uniE603" unicode="&#xe603;" 
d="M791 268q0 36 12 70t24.5 53.5t34 39t26.5 23t14 9.5q-17 25 -39.5 44t-42.5 29.5t-42.5 17t-36 8.5t-26.5 2q-35 4 -75 -7.5t-73 -25.5t-48 -14q-17 0 -75 23t-94 22q-65 -1 -121.5 -35.5t-90.5 -92.5q-26 -46 -36 -102t-5.5 -111.5t19.5 -111.5t37.5 -104t49.5 -87
q16 -24 27 -38.5t28.5 -34.5t32.5 -31t34.5 -19t38.5 -7q30 1 78.5 21.5t89.5 20.5q40 0 88 -20.5t81 -20.5q25 1 47 11t42.5 30.5t33.5 37.5t34 47q47 69 71 145v1q-8 3 -17.5 8t-33 22.5t-41 38.5t-31.5 58t-15 80zM663 648q18 23 31 49t19 56t3 59q-26 -1 -54 -11.5
t-53.5 -27.5t-43.5 -39q-27 -31 -43.5 -74t-10.5 -84q41 -3 82 17.5t70 54.5z" />
    <glyph glyph-name="uniE604" unicode="&#xe604;" 
d="M128 492v-640q0 -26 19 -45t45 -19h576q26 0 45 19t19 45v640h-704zM320 -84h-64v448h64v-448zM448 -84h-64v448h64v-448zM576 -84h-64v448h64v-448zM704 -84h-64v448h64v-448zM848 684h-208v80q0 20 -14 34t-34 14h-224q-20 0 -34 -14t-14 -34v-80h-208q-13 0 -24 -6.5
t-17.5 -17.5t-6.5 -24v-80h832v80q0 20 -14 34t-34 14zM576 684h-192v63h192v-63z" />
    <glyph glyph-name="uniE605" unicode="&#xe605;" horiz-adv-x="1152" 
d="M480 812q98 0 186.5 -31t153 -83t102.5 -123.5t38 -150.5q0 -106 -64 -195.5t-175 -141.5t-241 -52q-38 0 -75 5q-37 -37 -79 -62t-87 -37.5t-85 -18t-90 -6.5v25q51 25 83.5 66t32.5 88q0 13 -2 27q-83 54 -130.5 133t-47.5 169q0 105 64 194.5t175 141.5t241 52z
M996 -59q0 -41 25 -76t67 -55v-22q-58 1 -101.5 8.5t-93.5 31.5t-92 66q-32 -4 -65 -4q-142 0 -254 69q109 1 208.5 34.5t176.5 96.5q79 63 123 147q46 89 46 187q0 15 -1 31q27 -23 48.5 -49t37 -55.5t23.5 -62t8 -65.5q0 -77 -41 -144.5t-113 -114.5q-1 -3 -1.5 -7
t-0.5 -8v-8z" />
    <glyph glyph-name="uniE606" unicode="&#xe606;" horiz-adv-x="1152" 
d="M1088 -89q0 -34 17.5 -62t46.5 -42v-16l-16 -2q-8 -1 -17 -1q-102 0 -172 75q-41 -11 -83 -11q-119 0 -203.5 75t-84.5 181q0 70 38.5 128.5t105 93t144.5 34.5t144.5 -34.5t105 -93t38.5 -128.5q0 -82 -53 -148q-11 -24 -11 -49zM231 591q-103 -84 -103 -195
q0 -61 33 -116q35 -58 99 -100q23 -15 37.5 -38t18.5 -50q3 -18 4 -36q11 9 22 20q37 37 90 37h8q4 0 8 -1q7 -1 13 -1.5t13 -0.5l12 -2h14h12v-128q-40 0 -80 5q-32 -32 -68.5 -55.5t-71.5 -37.5t-75.5 -23t-75.5 -12.5t-77 -4.5v27q55 27 91.5 71t36.5 94q0 14 -2 29
q-89 58 -139.5 142.5t-50.5 180.5q0 85 40.5 162t109 132.5t163.5 88.5t199 33q41 0 81.5 -5.5t78 -15.5t72.5 -24.5t66.5 -32.5t59.5 -40.5t51 -47.5t42 -53t32 -58t20.5 -62.5t8.5 -66.5q-63 28 -132 33q-18 86 -99 152q-53 43 -123 67q-75 26 -158 26t-158 -26
q-23 -8 -44.5 -18t-41.5 -22.5t-37 -26.5z" />
    <glyph glyph-name="uniE607" unicode="&#xe607;" horiz-adv-x="1152" 
d="M480 684q-76 0 -145 -24q-65 -22 -114 -61q-93 -76 -93 -175q0 -14 2 -27.5t5.5 -26.5t9.5 -25.5t13 -24.5q32 -53 90 -91q48 -32 57 -88q1 -10 2 -18l8 8q37 37 90 37q9 0 16 -1q29 -4 59 -4q76 0 145 24q33 11 61.5 26.5t52.5 34.5q45 37 69 82t24 94q0 99 -93 175
q-49 39 -114 61q-69 24 -145 24zM480 812q98 0 186.5 -31t153 -83t102.5 -123.5t38 -150.5q0 -106 -64 -195.5t-175 -141.5t-241 -52q-38 0 -75 5q-37 -37 -79 -62t-87 -37.5t-85 -18t-90 -6.5v25q51 25 83.5 66t32.5 88q0 13 -2 27q-83 54 -130.5 133t-47.5 169
q0 105 64 194.5t175 141.5t241 52zM996 -59q0 -41 25 -76t67 -55v-22q-58 1 -101.5 8.5t-93.5 31.5t-92 66q-32 -4 -65 -4q-142 0 -254 69q109 1 208.5 34.5t176.5 96.5q79 63 123 147q46 89 46 187q0 15 -1 31q27 -23 48.5 -49t37 -55.5t23.5 -62t8 -65.5q0 -77 -41 -144.5
t-113 -114.5q-1 -3 -1.5 -7t-0.5 -8v-8z" />
    <glyph glyph-name="uniE608" unicode="&#xe608;" horiz-adv-x="1025" 
d="M64 812h384v-64h-384v64zM576 812h384v-64h-384v64zM952 492h-56v256h-256v-256h-256v256h-256v-256h-56q-19 0 -36 -9.5t-26.5 -26.5t-9.5 -36v-560q0 -30 21 -51t51 -21h304q30 0 51 21t21 51v376h128v-376q0 -30 21 -51t51 -21h304q30 0 51 21t21 51v560q0 30 -21 51
t-51 21zM348 -148h-248q-10 0 -18 4.5t-13 11.5t-5 16q0 13 10.5 22.5t25.5 9.5h248q15 0 25.5 -9.5t10.5 -22.5q0 -9 -5 -16t-13 -11.5t-18 -4.5zM544 300h-64q-13 0 -22.5 9.5t-9.5 22.5t9.5 22.5t22.5 9.5h64q9 0 16 -4.5t11.5 -11.5t4.5 -16q0 -13 -9.5 -22.5
t-22.5 -9.5zM924 -148h-248q-15 0 -25.5 9.5t-10.5 22.5t10.5 22.5t25.5 9.5h248q15 0 25.5 -9.5t10.5 -22.5q0 -9 -5 -16t-13 -11.5t-18 -4.5z" />
    <glyph glyph-name="uniE609" unicode="&#xe609;" 
d="M874.5 662.5q-72.5 72.5 -166 111t-196.5 38.5t-196.5 -38.5t-166 -111t-111 -166t-38.5 -196.5t38.5 -196.5t111 -166t166 -111t196.5 -38.5q51 0 100.5 10t95.5 29t88 47t78 64q73 72 111.5 165.5t38.5 196.5t-38.5 196.5t-111 166zM896 300q0 -123 -71 -222l-535 535
q99 71 222 71q78 0 149 -30.5t122.5 -82t82 -122.5t30.5 -149zM128 300q0 123 71 222l535 -535q-99 -71 -222 -71q-78 0 -149 30.5t-122.5 82t-82 122.5t-30.5 149z" />
    <glyph glyph-name="uniE60A" unicode="&#xe60a;" 
d="M256 684v-896l320 320l320 -320v896h-640zM768 812h-640v-896l64 64v768h576v64z" />
    <glyph glyph-name="uniE60B" unicode="&#xe60b;" 
d="M512 748q83 0 161.5 -21t141.5 -59.5t110 -89.5t73 -114.5t26 -131.5q0 -113 -68.5 -209t-186.5 -151.5t-257 -55.5q-40 0 -80 5q-39 -40 -84.5 -66.5t-94.5 -40t-92.5 -19t-96.5 -7.5v27q55 27 91.5 71t36.5 94q0 14 -2 29q-89 58 -139.5 142.5t-50.5 180.5
q0 113 68.5 209t186.5 151.5t257 55.5z" />
    <glyph glyph-name="uniE60C" unicode="&#xe60c;" 
d="M512 812q-139 0 -257 -68.5t-186.5 -186.5t-68.5 -257t68.5 -257t186.5 -186.5t257 -68.5t257 68.5t186.5 186.5t68.5 257t-68.5 257t-186.5 186.5t-257 68.5zM512 -116q-113 0 -209 55.5t-151.5 151.5t-55.5 209t55.5 209t151.5 151.5t209 55.5t209 -55.5t151.5 -151.5
t55.5 -209t-55.5 -209t-151.5 -151.5t-209 -55.5zM355 105l90 -90l286 285l-286 285l-90 -90l194 -195z" />
    <glyph glyph-name="uniE60D" unicode="&#xe60d;" 
d="M0 300q0 -139 68.5 -257t186.5 -186.5t257 -68.5t257 68.5t186.5 186.5t68.5 257t-68.5 257t-186.5 186.5t-257 68.5t-257 -68.5t-186.5 -186.5t-68.5 -257zM928 300q0 -68 -21 -131.5t-59.5 -114.5t-89.5 -89.5t-114.5 -59.5t-131.5 -21q-113 0 -209 55.5t-151.5 151.5
t-55.5 209t55.5 209t151.5 151.5t209 55.5t209 -55.5t151.5 -151.5t55.5 -209zM707 143l90 90l-285 286l-285 -286l90 -90l195 194z" />
    <glyph glyph-name="uniE60E" unicode="&#xe60e;" 
d="M928 684h-288q0 21 -6.5 40.5t-18.5 35t-27.5 27.5t-35 18.5t-40.5 6.5q-35 0 -64.5 -17t-46.5 -46.5t-17 -64.5h-288q-5 0 -10 -1.5t-9 -4.5t-7 -7t-4.5 -9t-1.5 -10v-832q0 -13 9.5 -22.5t22.5 -9.5h832q13 0 22.5 9.5t9.5 22.5v832q0 13 -9.5 22.5t-22.5 9.5zM512 748
q27 0 45.5 -18.5t18.5 -45.5t-18.5 -45.5t-45.5 -18.5q-17 0 -32 8.5t-23.5 23.5t-8.5 32q0 27 18.5 45.5t45.5 18.5zM896 -148h-768v768h128v-96q0 -13 9.5 -22.5t22.5 -9.5h448q13 0 22.5 9.5t9.5 22.5v96h128v-768zM448 -46l-205 237l58 58l147 -114l275 242l58 -58z" />
    <glyph glyph-name="uniE60F" unicode="&#xe60f;" 
d="M1024 383q0 99 -17.5 182.5t-48 132.5t-65.5 50v0h-83q-7 -6 -22 -16t-64 -38.5t-101 -53t-130.5 -52.5t-157.5 -44q-14 -74 -14 -161q0 -45 4 -85.5t10 -76.5q79 -16 156.5 -43t132.5 -53.5t99 -51.5t65.5 -40t21.5 -16h83q35 1 65.5 50t48 133t17.5 183zM865 73
q-11 0 -25 15q-19 22 -35 64q-36 95 -36 231t36 231q5 14 11 25.5t12 21t12 16.5q14 16 25 16t25 -16q19 -21 35 -63q36 -95 36 -231t-36 -231q-16 -42 -35 -64q-14 -15 -25 -15zM252 383q0 78 11 149q-75 -10 -140 -10h-68l-55 -95v-88l55 -95h68q65 0 140 -10
q-11 71 -11 149zM368 170l-128 24l82 -321q3 -13 14 -18.5t23 -0.5l118 48q8 3 13 9.5t5 14t-4 15.5zM865 263q-4 0 -10 6q-3 4 -6.5 10.5t-6.5 14.5q-14 36 -14 89q0 25 3.5 48t10.5 41q6 16 13 24q6 6 10 6t9 -6q4 -4 7.5 -10t6.5 -14q14 -37 14 -89q0 -26 -3.5 -49
t-10.5 -40q-6 -16 -14 -25q-5 -6 -9 -6z" />
    <glyph glyph-name="uniE610" unicode="&#xe610;" 
d="M320 428h128v-128h-128v128zM512 428h128v-128h-128v128zM704 428h128v-128h-128v128zM128 44h128v-128h-128v128zM320 44h128v-128h-128v128zM512 44h128v-128h-128v128zM320 236h128v-128h-128v128zM512 236h128v-128h-128v128zM704 236h128v-128h-128v128zM128 236
h128v-128h-128v128zM832 812v-64h-128v64h-448v-64h-128v64h-128v-1024h960v1024h-128zM896 -148h-832v704h832v-704z" />
    <glyph glyph-name="uniE611" unicode="&#xe611;" horiz-adv-x="1025" 
d="M304 204q0 -86 61 -147t147 -61t147 61t61 147t-61 147t-147 61t-147 -61t-61 -147zM960 556h-224q-5 18 -7.5 27.5t-7.5 25.5t-9.5 24.5t-12 20t-15.5 17t-19.5 9.5t-24.5 4h-256q-15 0 -28 -4.5t-22 -15t-15.5 -20t-13 -27.5t-9.5 -29t-8 -32h-224q-26 0 -45 -19
t-19 -45v-576q0 -26 19 -45t45 -19h896q26 0 45 19t19 45v576q0 26 -19 45t-45 19zM512 -80q-118 0 -201 83t-83 201t83 201t201 83t201 -83t83 -201t-83 -201t-201 -83zM960 364h-128v64h128v-64z" />
    <glyph glyph-name="uniE612" unicode="&#xe612;" 
d="M512 812q-139 0 -257 -68.5t-186.5 -186.5t-68.5 -257t68.5 -257t186.5 -186.5t257 -68.5t257 68.5t186.5 186.5t68.5 257t-68.5 257t-186.5 186.5t-257 68.5zM512 -116q-113 0 -209 55.5t-151.5 151.5t-55.5 209t55.5 209t151.5 151.5t209 55.5t209 -55.5t151.5 -151.5
t55.5 -209t-55.5 -209t-151.5 -151.5t-209 -55.5zM672 556l-160 -160l-160 160l-96 -96l160 -160l-160 -160l96 -96l160 160l160 -160l96 96l-160 160l160 160z" />
    <glyph glyph-name="uniE613" unicode="&#xe613;" 
d="M384 -116q0 -40 -28 -68t-68 -28t-68 28t-28 68t28 68t68 28t68 -28t28 -68zM1024 -116q0 -40 -28 -68t-68 -28t-68 28t-28 68q0 26 13 48t35 35t48 13q20 0 37.5 -7.5t30.5 -20.5t20.5 -30.5t7.5 -37.5zM1024 300v384h-768q0 13 -5 25t-13.5 20.5t-20.5 13.5t-25 5h-192
v-64h128l48 -412q-48 -39 -48 -100q0 -53 37.5 -90.5t90.5 -37.5h768v64h-768q-27 0 -45.5 19t-18.5 45v1z" />
    <glyph glyph-name="uniE614" unicode="&#xe614;" 
d="M896 812h-768q-53 0 -90.5 -37.5t-37.5 -90.5v-768q0 -53 37.5 -90.5t90.5 -37.5h768q53 0 90.5 37.5t37.5 90.5v768q0 53 -37.5 90.5t-90.5 37.5zM448 17l-237 238l90 90l147 -146l307 306l90 -90l-397 -397v-1z" />
    <glyph glyph-name="uniE615" unicode="&#xe615;" 
d="M896 812h-768q-53 0 -90.5 -37.5t-37.5 -90.5v-768q0 -53 37.5 -90.5t90.5 -37.5h768q53 0 90.5 37.5t37.5 90.5v768q0 53 -37.5 90.5t-90.5 37.5zM896 -84h-768v768h768v-768z" />
    <glyph glyph-name="uniE616" unicode="&#xe616;" horiz-adv-x="1025" 
d="M864 684l-480 -480l-224 224l-160 -160l384 -384l640 640z" />
    <glyph glyph-name="uniE617" unicode="&#xe617;" horiz-adv-x="1025" 
d="M398 -106l-398 392l197 194l201 -197l430 423l197 -195zM108 286l290 -285l519 510l-90 88l-429 -423l-201 198z" />
    <glyph glyph-name="uniE618" unicode="&#xe618;" 
d="M1024 300q0 139 -68.5 257t-186.5 186.5t-257 68.5t-257 -68.5t-186.5 -186.5t-68.5 -257t68.5 -257t186.5 -186.5t257 -68.5t257 68.5t186.5 186.5t68.5 257zM96 300q0 85 33 162t88.5 132.5t132.5 88.5t162 33q43 0 84 -8.5t78 -24t70.5 -38.5t61.5 -51t51 -61.5
t38.5 -70.5t24 -78t8.5 -84q0 -113 -55.5 -209t-151.5 -151.5t-209 -55.5t-209 55.5t-151.5 151.5t-55.5 209zM317 457l-90 -90l285 -286l285 286l-90 90l-195 -194z" />
    <glyph glyph-name="uniE619" unicode="&#xe619;" 
d="M512 812q-139 0 -257 -68.5t-186.5 -186.5t-68.5 -257t68.5 -257t186.5 -186.5t257 -68.5t257 68.5t186.5 186.5t68.5 257t-68.5 257t-186.5 186.5t-257 68.5zM96 300q0 85 33 162t88.5 132.5t132.5 88.5t162 33q41 0 80 -7.5t75 -22t68.5 -35.5t60.5 -47l-412 -176
l-176 -412q-53 57 -82.5 130t-29.5 154zM585 227l-256 -110l110 256zM512 -116q-81 0 -154 29.5t-130 82.5l412 176l176 412q53 -57 82.5 -130t29.5 -154q0 -68 -21 -131.5t-59.5 -114.5t-89.5 -89.5t-114.5 -59.5t-131.5 -21z" />
    <glyph glyph-name="uniE61A" unicode="&#xe61a;" horiz-adv-x="1291" 
d="M640 236q52 0 101.5 -13.5t92 -39t77.5 -60.5l-90 -90q-36 35 -82.5 55t-98.5 20q-106 0 -181 -75l-90 90q53 54 123 83.5t148 29.5zM187 305q61 60 133.5 102t153.5 63.5t166 21.5q128 0 245 -48.5t208 -138.5l-91 -91q-72 73 -165.5 111.5t-196.5 38.5t-196.5 -38.5
t-165.5 -111.5zM989 678q161 -68 285 -192l-91 -91q-72 72 -159 122.5t-184.5 76.5t-199.5 26q-154 0 -294 -58t-249 -167l-91 91q124 124 285 192q42 17 84.5 30t86 22t88.5 13.5t90 4.5q182 0 349 -70zM576 -84q0 27 18.5 45.5t45.5 18.5t45.5 -18.5t18.5 -45.5
t-18.5 -45.5t-45.5 -18.5t-45.5 18.5t-18.5 45.5z" />
    <glyph glyph-name="uniE61B" unicode="&#xe61b;" 
d="M1024 154q0 41 -17.5 76.5t-47.5 60t-68 33.5q-2 97 -71.5 164.5t-166.5 67.5q-56 0 -104.5 -24t-82.5 -67q-40 52 -105 52q-56 0 -95 -39t-39 -95q0 -9 1 -18q-17 3 -34 3q-81 0 -137.5 -57t-56.5 -137t56.5 -137t137.5 -57h656q47 0 87 23.5t63.5 63.5t23.5 87z" />
    <glyph glyph-name="uniE61C" unicode="&#xe61c;" 
d="M934 202q-41 70 -19.5 148t91.5 118l-101 175q-14 -9 -30 -15t-33 -9t-35 -3q-80 0 -137 57.5t-57 138.5h-201q0 -17 -3 -33.5t-9 -33t-14 -31.5q-41 -70 -119 -90.5t-148 19.5l-101 -174q46 -26 72 -72q40 -69 19 -147t-91 -119l101 -174q45 26 97 26q81 0 138 -57
t57 -138h201q0 52 26 97q40 70 118 90.5t149 -19.5l100 175q-45 25 -71 71zM512 93q-86 0 -146.5 60.5t-60.5 146.5t60.5 146.5t146.5 60.5t146.5 -60.5t60.5 -146.5t-60.5 -146.5t-146.5 -60.5z" />
    <glyph glyph-name="uniE61D" unicode="&#xe61d;" 
d="M736 -84q-66 0 -113 47t-47 113v96h-128v-96q0 -43 -21.5 -80t-58.5 -58.5t-80 -21.5t-80 21.5t-58.5 58.5t-21.5 80t21.5 80t58.5 58.5t80 21.5h96v128h-96q-66 0 -113 47t-47 113t47 113t113 47t113 -47t47 -113v-96h128v96q0 66 47 113t113 47t113 -47t47 -113
t-47 -113t-113 -47h-96v-128h96q66 0 113 -47t47 -113t-47 -113t-113 -47zM640 172v-96q0 -40 28 -68t68 -28t68 28t28 68t-28 68t-68 28h-96zM288 172q-40 0 -68 -28t-28 -68t28 -68t68 -28t68 28t28 68v96h-96zM448 236h128v128h-128v-128zM640 428h96q40 0 68 28t28 68
t-28 68t-68 28t-68 -28t-28 -68v-96zM288 620q-40 0 -68 -28t-28 -68t28 -68t68 -28h96v96q0 40 -28 68t-68 28z" />
    <glyph glyph-name="uniE61E" unicode="&#xe61e;" 
d="M544 -212q-4 0 -7 1q-7 1 -13 5.5t-9 11.5t-3 14v480h-480q-11 0 -20 7t-11 18q-2 7 0 14.5t6.5 13t10.5 8.5l960 448q10 4 19.5 2.5t17 -9t9 -17t-2.5 -19.5l-448 -960q-9 -18 -29 -18zM176 364h368q13 0 22.5 -9.5t9.5 -22.5v-368l350 750z" />
    <glyph glyph-name="uniE61F" unicode="&#xe61f;" 
d="M0 748v-640h1024v640h-1024zM960 172h-896v512h896v-512zM672 44h-320l-32 -128l-64 -64h512l-64 64z" />
    <glyph glyph-name="uniE620" unicode="&#xe620;" 
d="M512 236l256 256h-192v256h-128v-256h-192zM745 341l-72 -72l260 -97l-421 -157l-421 157l260 97l-72 72l-279 -105v-256l512 -192l512 192v256z" />
    <glyph glyph-name="uniE621" unicode="&#xe621;" horiz-adv-x="1025" 
d="M896 300h-160l-224 -224l-224 224h-160l-128 -256v-64h1024v64zM0 -84h1024v-64h-1024v64zM576 492v256h-128v-256h-224l288 -288l288 288h-224z" />
    <glyph glyph-name="uniE622" unicode="&#xe622;" horiz-adv-x="1025" 
d="M928 684h-832q-16 0 -30.5 -5t-26 -14t-20.5 -20.5t-14 -26t-5 -30.5v-576q0 -40 28 -68t68 -28h832q40 0 68 28t28 68v576q0 8 -1.5 15.5t-3.5 14.5t-5.5 14t-8 13t-9.5 11t-11 9.5t-13 8t-14 5.5t-14.5 3.5t-15.5 1.5zM96 620h832q6 0 12 -2.5t10.5 -7t7 -10.5t2.5 -12
v-96h-896v96q0 13 9.5 22.5t22.5 9.5zM928 -20h-832q-13 0 -22.5 9.5t-9.5 22.5v288h896v-288q0 -6 -2.5 -12t-7 -10.5t-10.5 -7t-12 -2.5zM128 172h64v-128h-64v128zM256 172h64v-128h-64v128zM384 172h64v-128h-64v128z" />
    <glyph glyph-name="uniE623" unicode="&#xe623;" 
d="M1015 -11l-311 311l311 311q5 4 7 11q7 19 -7 34l-147 147q-15 14 -34 7q-3 -1 -6 -3t-5 -4l-311 -311l-311 311q-2 2 -5 4t-6 3q-8 3 -17.5 1t-16.5 -8l-147 -147q-14 -15 -7 -34q3 -7 7 -11l311 -311l-311 -311q-4 -5 -7 -11q-7 -19 7 -34l147 -147q15 -14 34 -7
q2 1 3.5 1.5t2.5 1.5t2.5 2t2.5 2l311 311l311 -311q5 -5 11 -7q19 -7 34 7l147 147q14 15 7 34q-1 3 -3 6t-4 5z" />
    <glyph glyph-name="uniE624" unicode="&#xe624;" 
d="M512 812q-104 0 -199 -12.5t-163.5 -34t-109 -51t-40.5 -62.5v-128q0 -43 68.5 -80t186.5 -58.5t257 -21.5t257 21.5t186.5 58.5t68.5 80v128q0 43 -68.5 80t-186.5 58.5t-257 21.5zM512 268q-139 0 -257 21.5t-186.5 58.5t-68.5 80v-192q0 -43 68.5 -80t186.5 -58.5
t257 -21.5t257 21.5t186.5 58.5t68.5 80v192q0 -43 -68.5 -80t-186.5 -58.5t-257 -21.5zM512 -20q-139 0 -257 21.5t-186.5 58.5t-68.5 80v-192q0 -33 40.5 -62.5t109 -51t163.5 -34t199 -12.5q139 0 257 21.5t186.5 58.5t68.5 80v192q0 -43 -68.5 -80t-186.5 -58.5
t-257 -21.5z" />
    <glyph glyph-name="uniE625" unicode="&#xe625;" 
d="M1024 812h-416l160 -160l-192 -192l96 -96l192 192l160 -160v416zM1024 -212v416l-160 -160l-192 192l-96 -96l192 -192l-160 -160h416zM0 -212h416l-160 160l192 192l-96 96l-192 -192l-160 160v-416zM0 812v-416l160 160l192 -192l96 96l-192 192l160 160h-416z" />
    <glyph glyph-name="uniE626" unicode="&#xe626;" 
d="M384 300h-320v128h320v128l192 -192l-192 -192v128zM1024 812v-832l-384 -192v192h-384v256h64v-192h320v576l256 128h-576v-256h-64v320h768z" />
    <glyph glyph-name="uniE627" unicode="&#xe627;" horiz-adv-x="1025" 
d="M928 684h-832q-16 0 -30.5 -5t-26 -14t-20.5 -20.5t-14 -26t-5 -30.5v-640q0 -40 28 -68t68 -28h832q40 0 68 28t28 68v640q0 8 -1.5 15.5t-3.5 14.5t-5.5 14t-8 13t-9.5 11t-11 9.5t-13 8t-14 5.5t-14.5 3.5t-15.5 1.5zM399 262l-271 -211v501zM176 556h672l-336 -252z
M409 250l103 -110l103 110l210 -270h-626zM625 262l271 290v-501z" />
    <glyph glyph-name="uniE628" unicode="&#xe628;" horiz-adv-x="1025" 
d="M448 684v16q0 10 -4 18.5t-10 15t-15 10.5t-19 4h-160q-20 0 -34 -14t-14 -34v-16h-192v-128h192v-16q0 -20 14 -34t34 -14h160q20 0 34 14t14 34v16h576v128h-576zM256 556v128h128v-128h-128zM832 380q0 20 -14 34t-34 14h-160q-6 0 -11 -1.5t-10 -3.5t-9 -5.5
t-7.5 -7.5t-5.5 -9t-3.5 -10t-1.5 -11v-16h-576v-128h576v-16q0 -13 6.5 -24t17.5 -17.5t24 -6.5h160q13 0 24 6.5t17.5 17.5t6.5 24v16h192v128h-192v16zM640 236v128h128v-128h-128zM448 60q0 20 -14 34t-34 14h-160q-20 0 -34 -14t-14 -34v-16h-192v-128h192v-16
q0 -20 14 -34t34 -14h160q20 0 34 14t14 34v16h576v128h-576v16zM256 -84v128h128v-128h-128z" />
    <glyph glyph-name="uniE629" unicode="&#xe629;" 
d="M896 364h16q20 0 34 14t14 34v160q0 20 -14 34t-34 14h-16v192h-128v-192h-16q-20 0 -34 -14t-14 -34v-160q0 -20 14 -34t34 -14h16v-576h128v576zM768 556h128v-128h-128v128zM592 -20q20 0 34 14t14 34v160q0 20 -14 34t-34 14h-16v576h-128v-576h-16q-20 0 -34 -14
t-14 -34v-160q0 -20 14 -34t34 -14h16v-192h128v192h16zM448 172h128v-128h-128v128zM272 364q20 0 34 14t14 34v160q0 13 -6.5 24t-17.5 17.5t-24 6.5h-16v192h-128v-192h-16q-20 0 -34 -14t-14 -34v-160q0 -20 14 -34t34 -14h16v-576h128v576h16zM128 556h128v-128h-128
v128z" />
    <glyph glyph-name="uniE62A" unicode="&#xe62a;" 
d="M0 44h1024v-128h-1024v128zM512 684l512 -512h-1024z" />
    <glyph glyph-name="uniE62B" unicode="&#xe62b;" 
d="M768 172v128h-320v128h320v128l192 -192zM704 236v-256h-320v-192l-384 192v832h704v-320h-64v256h-512l256 -128v-576h256v192h64z" />
    <glyph glyph-name="uniE62C" unicode="&#xe62c;" 
d="M512 620q-165 0 -302 -87.5t-210 -232.5q73 -145 210 -232.5t302 -87.5t302 87.5t210 232.5q-73 145 -210 232.5t-302 87.5zM764 450q92 -58 150 -150q-58 -92 -150 -150q-115 -74 -252 -74t-252 74q-92 58 -150 150q58 92 150 150q4 3 11 8q-7 -21 -11 -43t-4 -45
q0 -106 75 -181t181 -75q52 0 99.5 20.5t81.5 54.5t54.5 81.5t20.5 99.5q0 23 -4 45t-11 43q7 -5 11 -8v0zM512 396q0 -20 -7.5 -37.5t-20.5 -30.5t-30.5 -20.5t-37.5 -7.5t-37.5 7.5t-30.5 20.5t-20.5 30.5t-7.5 37.5q0 10 2 19.5t5.5 18t9 16t12 14t14 12t16 9t18 5.5
t19.5 2q40 0 68 -28t28 -68z" />
    <glyph glyph-name="uniE62D" unicode="&#xe62d;" 
d="M136.5 61q-56.5 0 -96.5 -40t-40 -96t40 -96t96.5 -40t96.5 40t40 96t-40 96t-96.5 40zM0 464v-196q96 0 183.5 -36.5t155 -104t104 -155.5t36.5 -184h197q0 233 -143 416q-133 170 -339 232q-95 28 -194 28zM0 812v-196q113 0 220 -30t197.5 -83.5t167 -130t130 -167
t83 -198t29.5 -219.5h197q0 139 -37 271.5t-103 245t-160.5 207t-206.5 160.5t-245 103t-272 37z" />
    <glyph glyph-name="uniE62E" unicode="&#xe62e;" 
d="M853 812h-682q-71 0 -121 -50t-50 -121v-682q0 -71 50 -121t121 -50h682q71 0 121 50t50 121v682q0 71 -50 121t-121 50zM279 -19q-36 0 -61.5 25t-25.5 61t25.5 61.5t61.5 25.5t61.5 -25.5t25.5 -61.5t-25.5 -61t-61.5 -25zM497 -20q0 127 -89.5 216.5t-215.5 89.5v125
q117 0 216.5 -57.5t157 -157t57.5 -216.5h-126zM720 -20q0 107 -42 205t-112.5 168.5t-168.5 112.5t-205 42v125q133 0 254 -51.5t208.5 -139.5t139 -208.5t51.5 -253.5h-125z" />
    <glyph glyph-name="uniE62F" unicode="&#xe62f;" 
d="M512 812q-104 0 -199 -12.5t-163.5 -34t-109 -51t-40.5 -62.5v-96l384 -384v-320q0 -27 37.5 -45.5t90.5 -18.5t90.5 18.5t37.5 45.5v320l384 384v96q0 19 -13.5 37t-38.5 33.5t-60 29.5t-79.5 25t-95 19t-108 12t-117.5 4zM94 673q37 21 98 38q66 18 148.5 27.5
t171.5 9.5q184 0 320 -37q61 -17 98 -38q19 -11 28 -21q-9 -10 -28 -21q-12 -7 -27 -13.5t-33 -12.5t-38 -12q-66 -18 -148.5 -27.5t-171.5 -9.5q-184 0 -320 37q-61 17 -98 38q-19 11 -28 21q10 10 28 21z" />
    <glyph glyph-name="uniE630" unicode="&#xe630;" 
d="M569 34zM571 -3v1v-1zM570 16zM960 812h-896q-26 0 -45 -19t-19 -45v-896q0 -26 19 -45t45 -19h494v0h402q26 0 45 19t19 45v896q0 26 -19 45t-45 19zM192 588q0 13 9.5 22.5t22.5 9.5t22.5 -9.5t9.5 -22.5v-64q0 -13 -9.5 -22.5t-22.5 -9.5t-22.5 9.5t-9.5 22.5v64z
M960 -148h-375q-9 59 -13 128v-1l-30 -2q-15 -1 -30 -1q-100 0 -193.5 35.5t-168.5 101.5q-12 10 -13 25t9 26t25 12t26 -9q65 -58 146.5 -88.5t168.5 -30.5q14 0 28.5 1t28.5 2q-2 118 7 214q1 7 -1.5 13t-6.5 11q-10 11 -24 11h-95q3 82 15 160q9 63 23 117t32.5 97
t40.5 74h400v-896zM800 492q-13 0 -22.5 9.5t-9.5 22.5v64q0 13 9.5 22.5t22.5 9.5t22.5 -9.5t9.5 -22.5v-64q0 -13 -9.5 -22.5t-22.5 -9.5zM540 -23h-3q-2 0 -4 -0.5t-3 -0.5q2 0 5 0.5t5 0.5zM512 -24h14h-14zM539 49h1h1h-1h-1zM525 48h2h1h-3zM878 164q-10 11 -25 12
t-26 -9q-36 -32 -78 -56t-87.5 -39t-92.5 -21q1 -37 3 -72q172 19 302 134q12 10 13 25t-9 26zM571 -21q-3 0 -6.5 -0.5t-6.5 -0.5q7 1 13 1zM555 -22q-5 -1 -11 -1q6 0 11 1z" />
    <glyph glyph-name="uniE631" unicode="&#xe631;" 
d="M864 812h-768q-19 0 -37 -7.5t-31 -20.5t-20.5 -31t-7.5 -37v-832q0 -26 13 -48t35 -35t48 -13h768q26 0 48 13t35 35t13 48v832q0 19 -7.5 37t-20.5 31t-31 20.5t-37 7.5zM832 -84h-704v768h704v-768zM256 364h448v-64h-448v64zM256 236h448v-64h-448v64zM256 108h448
v-64h-448v64zM256 492h448v-64h-448v64z" />
    <glyph glyph-name="uniE632" unicode="&#xe632;" 
d="M772 492q28 20 51 43q25 25 41.5 55t21.5 61q12 71 -32 115q-16 17 -38.5 25.5t-48.5 8.5q-78 0 -144 -65q-80 -81 -126 -224q-14 60 -39.5 117t-66.5 97q-48 49 -112 49q-50 0 -84 -33q-37 -38 -32.5 -95.5t47.5 -101.5q29 -29 71 -52h-217v-256h64v-448h768v448h64v256
h-188zM674 684q14 14 30 24t32 15t31 5q10 0 19.5 -3t16.5 -10q20 -19 10.5 -58t-41.5 -71q-30 -30 -70 -53.5t-84 -40.5h-51q40 125 107 192zM234 651q-1 10 1.5 20.5t10.5 18.5q3 3 6.5 5t7 3.5t7 2t6.5 1t6 0.5q34 0 61 -27q26 -26 46.5 -65.5t34.5 -90.5q1 -2 2 -6
q-4 1 -6 2q-51 14 -90.5 34.5t-65.5 45.5q-25 25 -27 56zM448 -148h-256v416h256v-416zM448 300h-320v128h320v-128zM832 -148h-256v416h256v-416zM896 300h-320v128h320v-128z" />
    <glyph glyph-name="uniE633" unicode="&#xe633;" 
d="M448 684l128 -128h448v-704h-1024v832h448z" />
    <glyph glyph-name="uniE634" unicode="&#xe634;" 
d="M832 -148l192 512h-832l-192 -512h832zM128 428l-128 -576v832h288l128 -128h416v-128h-704z" />
    <glyph glyph-name="uniE635" unicode="&#xe635;" 
d="M960 684v-768h-896v768h896zM960 748h-896q-26 0 -45 -19t-19 -45v-768q0 -26 19 -45t45 -19h896q26 0 45 19t19 45v768q0 26 -19 45t-45 19zM832 524q0 -20 -7.5 -37.5t-20.5 -30.5t-30.5 -20.5t-37.5 -7.5q-40 0 -68 28t-28 68q0 20 7.5 37.5t20.5 30.5t30.5 20.5
t37.5 7.5t37.5 -7.5t30.5 -20.5t20.5 -30.5t7.5 -37.5zM896 -20h-768v128l224 384l256 -320h64l224 192v-384z" />
    <glyph glyph-name="uniE636" unicode="&#xe636;" horiz-adv-x="1152" 
d="M1088 684h-64v64q0 26 -19 45t-45 19h-896q-26 0 -45 -19t-19 -45v-768q0 -26 19 -45t45 -19h64v-64q0 -26 19 -45t45 -19h896q26 0 45 19t19 45v768q0 26 -19 45t-45 19zM128 620v-640h-64v768h896v-64h-768q-26 0 -45 -19t-19 -45v0zM1088 -148h-896v768h896v-768z
M960 460q0 -16 -5 -30.5t-13.5 -26.5t-20.5 -20.5t-26.5 -13.5t-30.5 -5q-26 0 -48 13t-35 35t-13 48q0 20 7.5 37.5t20.5 30.5t30.5 20.5t37.5 7.5q26 0 48 -13t35 -35t13 -48zM1024 -84h-768v128l224 384l256 -320h64l224 192v-384z" />
    <glyph glyph-name="uniE637" unicode="&#xe637;" 
d="M448 508q0 32 29 44q9 4 19 4h32q7 0 13 -1.5t11 -5t9.5 -8t8 -9.5t5 -11.5t1.5 -12.5v-32q0 -20 -14 -34t-34 -14h-32q-20 0 -34 14t-14 34v32zM640 44h-256v64h64v192h-64v64h192v-256h64v-64zM512 812q-139 0 -257 -68.5t-186.5 -186.5t-68.5 -257t68.5 -257
t186.5 -186.5t257 -68.5t257 68.5t186.5 186.5t68.5 257t-68.5 257t-186.5 186.5t-257 68.5zM512 -116q-113 0 -209 55.5t-151.5 151.5t-55.5 209t55.5 209t151.5 151.5t209 55.5t209 -55.5t151.5 -151.5t55.5 -209t-55.5 -209t-151.5 -151.5t-209 -55.5z" />
    <glyph glyph-name="uniE638" unicode="&#xe638;" 
d="M755 748q-51 0 -100.5 -26t-85 -66t-57.5 -87q-16 35 -41 66.5t-56 57t-69 40.5t-77 15q-111 0 -190 -79t-79 -190q0 -62 17 -116.5t48.5 -98.5t70.5 -84.5t88 -83t95.5 -84t99 -97.5t93.5 -115q39 58 90 114.5t97.5 99t96 85.5t89 84t72 85t50 97.5t17.5 113.5
q0 55 -21.5 104.5t-57.5 85.5t-85.5 57.5t-104.5 21.5z" />
    <glyph glyph-name="uniE639" unicode="&#xe639;" 
d="M1024 222l-512 397l-512 -397v162l512 397l512 -397v-162zM896 236v-384h-256v256h-256v-256h-256v384l384 288z" />
    <glyph glyph-name="uniE63A" unicode="&#xe63a;" horiz-adv-x="1025" 
d="M512 780l-512 -512l96 -96l96 96v-416h256v192h128v-192h256v416l96 -96l96 96zM512 364q-27 0 -45.5 18.5t-18.5 45.5t18.5 45.5t45.5 18.5t45.5 -18.5t18.5 -45.5t-18.5 -45.5t-45.5 -18.5z" />
    <glyph glyph-name="uniE63B" unicode="&#xe63b;" 
d="M1024 204l-192 192v288h-128v-160l-192 192l-512 -512v-32h128v-320h320v192h128v-192h320v320h128v32z" />
    <glyph glyph-name="uniE63C" unicode="&#xe63c;" 
d="M729 300q105 67 168 186.5t63 261.5v22l-2 20q0 11 -1 22h-890l-3 -64q0 -142 63 -261.5t168 -186.5q-69 -44 -121 -111.5t-81 -154.5t-29 -182q0 -16 1 -32l2 -32h890q3 32 3 64q0 142 -63 261.5t-168 186.5zM160 -148q0 143 59 251t165 147v100q-106 39 -165 147
t-59 251h704q0 -94 -25.5 -174t-76.5 -139t-122 -85v-100q106 -39 165 -147t59 -251h-704zM620 142q-26 15 -42.5 32t-23 35t-8.5 30.5t-2 28.5v64q0 16 2 28.5t8.5 30.5t23 35t42.5 32q19 11 36.5 26t32.5 33t28 39h-410q8 -13 16.5 -24.5t18 -22t19.5 -20t21 -17.5t22 -14
q26 -15 42.5 -32t23 -35t8.5 -30.5t2 -28.5v-64q0 -16 -2 -28.5t-8.5 -30.5t-23 -35t-42.5 -32q-55 -32 -93 -91.5t-50 -134.5h502q-12 75 -50 135t-93 91z" />
    <glyph glyph-name="uniE63D" unicode="&#xe63d;" 
d="M704 812q-133 0 -226.5 -93.5t-93.5 -226.5q0 -29 5 -59l-389 -389v-192q0 -27 18.5 -45.5t45.5 -18.5h64v64h128v128h128v128h128l83 83q53 -19 109 -19q133 0 226.5 93.5t93.5 226.5t-93.5 226.5t-226.5 93.5zM800 492q-40 0 -68 28t-28 68t28 68t68 28t68 -28t28 -68
t-28 -68t-68 -28z" />
    <glyph glyph-name="uniE63E" unicode="&#xe63e;" horiz-adv-x="1152" 
d="M1088 684h-1024q-26 0 -45 -19t-19 -45v-640q0 -26 19 -45t45 -19h1024q26 0 45 19t19 45v640q0 26 -19 45t-45 19zM640 556h128v-128h-128v128zM832 364v-128h-128v128h128zM448 556h128v-128h-128v128zM640 364v-128h-128v128h128zM256 556h128v-128h-128v128zM448 364
v-128h-128v128h128zM128 556h64v-128h-64v128zM128 364h128v-128h-128v128zM192 44h-64v128h64v-128zM768 44h-512v128h512v-128zM1024 44h-192v128h192v-128zM1024 236h-128v128h128v-128zM1024 428h-192v128h192v-128z" />
    <glyph glyph-name="uniE63F" unicode="&#xe63f;" 
d="M592 364h-16v192q0 79 -56.5 135.5t-135.5 56.5h-128q-39 0 -74.5 -15t-61.5 -41t-41 -61.5t-15 -74.5v-192h-16q-20 0 -34 -14t-14 -34v-480q0 -20 14 -34t34 -14h544q20 0 34 14t14 34v480q0 20 -14 34t-34 14zM192 556q0 26 19 45t45 19h128q10 0 20 -3t18 -9t14 -14
t9 -18t3 -20v-192h-256v192z" />
    <glyph glyph-name="uniE640" unicode="&#xe640;" 
d="M128 492h640v-192l256 256l-256 256v-192h-768v-384h128v256zM896 108h-640v192l-256 -256l256 -256v192h768v384h-128v-256z" />
    <glyph glyph-name="uniE641" unicode="&#xe641;" horiz-adv-x="1025" 
d="M890 646q-48 51 -106.5 88t-128 57.5t-143.5 20.5q-104 0 -199 -40.5t-163.5 -109t-109 -163.5t-40.5 -199h96q0 85 33 162t88.5 132.5t132.5 88.5t162 33q37 0 72.5 -6t68 -18t62.5 -29t57 -38.5t50 -46.5l-150 -150h352v352zM928 300q0 -113 -55.5 -209t-151.5 -151.5
t-209 -55.5q-91 0 -171 36.5t-139 101.5l150 150h-352v-352l134 134q72 -78 170 -122t208 -44q83 0 161.5 26t141.5 73t110 110t73 141.5t26 161.5h-96z" />
    <glyph glyph-name="uniE642" unicode="&#xe642;" 
d="M853 812h-682q-46 0 -85.5 -23t-62.5 -62.5t-23 -85.5v-682q0 -71 50 -121t121 -50h682q71 0 121 50t50 121v682q0 71 -50 121t-121 50zM853 684q4 0 8 -1t7.5 -2t6.5 -3l-363 -301l-363 301q10 6 22 6h682zM171 -84h-6l226 313l-30 30l-233 -234v611l384 -464l384 464
v-611l-233 234l-30 -30l226 -313h-6h-682z" />
    <glyph glyph-name="uniE643" unicode="&#xe643;" 
d="M512 812q-139 0 -257 -68.5t-186.5 -186.5t-68.5 -257t68.5 -257t186.5 -186.5t257 -68.5t257 68.5t186.5 186.5t68.5 257t-68.5 257t-186.5 186.5t-257 68.5zM256 556h512q14 0 26 -6l-282 -329l-282 329q12 6 26 6zM192 108v384v4l188 -219l-186 -186q-2 9 -2 17z
M768 44h-512q-8 0 -17 2l183 182l90 -105l90 105l183 -182q-9 -2 -17 -2zM832 108q0 -8 -2 -17l-186 186l188 219v-4v-384z" />
    <glyph glyph-name="uniE644" unicode="&#xe644;" 
d="M440 176q-21 0 -37 15q-71 72 -71 173t71 173l192 192q18 17 38 30.5t41.5 22.5t45.5 13.5t48 4.5q49 0 93.5 -18.5t79.5 -52.5q23 -24 39 -52.5t24 -58.5t8 -62t-8 -62t-24 -58.5t-39 -52.5l-88 -87q-15 -15 -36.5 -15t-37 15t-15.5 36.5t15 36.5l88 88q41 41 41 99
t-41 99q-10 10 -21.5 17.5t-24 13t-26 8t-27.5 2.5q-19 0 -36.5 -4.5t-33.5 -14t-29 -22.5l-192 -192q-41 -41 -41 -99t41 -99q15 -15 15 -36.5t-15 -37.5q-7 -7 -17 -11t-20 -4zM256 -200q-101 0 -172.5 71.5t-71.5 172.5t71 173l88 87q15 16 37 16t37 -16q10 -10 13.5 -23
t0 -26.5t-13.5 -23.5l-88 -88q-41 -41 -41 -99t41 -99t99 -41t99 41l192 192q20 20 30.5 46t10.5 52.5t-10.5 53t-30.5 46.5q-15 15 -15 36.5t15 37t36.5 15.5t37.5 -15q35 -36 53 -81.5t18 -91.5t-18 -92t-53 -81l-192 -192q-72 -71 -173 -71z" />
    <glyph glyph-name="uniE645" unicode="&#xe645;" 
d="M0 812h256v-256h-256v256zM384 748h640v-128h-640v128zM0 428h256v-256h-256v256zM384 364h640v-128h-640v128zM0 44h256v-256h-256v256zM384 -20h640v-128h-640v128z" />
    <glyph glyph-name="uniE646" unicode="&#xe646;" 
d="M384 748h640v-128h-640v128zM384 364h640v-128h-640v128zM384 -20h640v-128h-640v128zM0 684q0 53 37.5 90.5t90.5 37.5t90.5 -37.5t37.5 -90.5t-37.5 -90.5t-90.5 -37.5t-90.5 37.5t-37.5 90.5zM0 300q0 53 37.5 90.5t90.5 37.5t90.5 -37.5t37.5 -90.5t-37.5 -90.5
t-90.5 -37.5t-90.5 37.5t-37.5 90.5zM0 -84q0 53 37.5 90.5t90.5 37.5t90.5 -37.5t37.5 -90.5t-37.5 -90.5t-90.5 -37.5t-90.5 37.5t-37.5 90.5z" />
    <glyph glyph-name="uniE647" unicode="&#xe647;" 
d="M512 812q-133 0 -226.5 -93.5t-93.5 -226.5q0 -90 33 -195.5t80 -192t94 -160t80 -114.5l33 -42q13 16 34.5 43.5t77 111t97.5 164.5t76.5 188t34.5 197q0 133 -93.5 226.5t-226.5 93.5zM512 300q-80 0 -136 56t-56 136t56 136t136 56t136 -56t56 -136t-56 -136t-136 -56
z" />
    <glyph glyph-name="uniE648" unicode="&#xe648;" 
d="M512 812q-133 0 -226.5 -93.5t-93.5 -226.5q0 -90 33 -195.5t80 -192t94 -160t80 -114.5l33 -42q13 16 34.5 43.5t77 111t97.5 164.5t76.5 188t34.5 197q0 133 -93.5 226.5t-226.5 93.5zM512 296q-81 0 -138.5 57.5t-57.5 138.5q0 53 26 98.5t71.5 71.5t98.5 26t98.5 -26
t71.5 -71.5t26 -98.5t-26 -98.5t-71.5 -71.5t-98.5 -26zM388 492q0 51 36.5 87.5t87.5 36.5t87.5 -36.5t36.5 -87.5t-36.5 -87.5t-87.5 -36.5t-87.5 36.5t-36.5 87.5z" />
    <glyph glyph-name="uniE649" unicode="&#xe649;" 
d="M0 620l320 128v-768l-320 -128v768zM384 780l320 -192v-736l-320 160v768zM768 588l256 192v-768l-256 -192v768z" />
    <glyph glyph-name="uniE64A" unicode="&#xe64a;" horiz-adv-x="1025" 
d="M672 620l-320 128l-352 -128v-768l352 128l320 -128l352 128v768zM384 666l256 -102v-630l-256 102v630zM64 575l256 93v-632l-256 -93v632zM960 25l-256 -93v632l256 93v-632z" />
    <glyph glyph-name="uniE64B" unicode="&#xe64b;" 
d="M512 748q139 0 257 -68.5t186.5 -186.5t68.5 -257q0 -142 -72 -261.5t-192 -186.5h-496q-120 67 -192 186.5t-72 261.5q0 104 40.5 199t109 163.5t163.5 109t199 40.5zM802 -54q58 58 89 133t31 157h-90v64h85q-11 68 -43 128h-106v64h64q-14 18 -30 34q-70 69 -162 100
v-70h-64v85q-32 5 -64 5t-64 -5v-85h-64v70q-13 -5 -25.5 -10t-25 -11t-24 -12.5t-23 -14t-22.5 -16t-21.5 -17.5t-20.5 -19q-8 -8 -15.5 -16.5t-14.5 -17.5h64v-64h-106q-32 -60 -43 -128h85v-64h-90q0 -82 31 -157t89 -133l8 -8q4 -4 8.5 -7.5t8.5 -7t9 -7.5h192l37 512
h54l37 -512h192q6 5 11.5 9.5t11.5 10t11 10.5z" />
    <glyph glyph-name="uniE64C" unicode="&#xe64c;" 
d="M480 108q66 0 113 47t47 113v384q0 33 -12.5 62.5t-34 51t-51 34t-62.5 12.5q-22 0 -42.5 -5.5t-38 -16t-32.5 -25.5t-25 -32.5t-16 -38t-6 -42.5v-384q0 -66 47 -113t113 -47zM704 364v-96q0 -26 -6 -51.5t-17 -47.5t-26 -41.5t-34.5 -34.5t-42 -26t-47.5 -17t-51 -6
q-93 0 -158.5 65.5t-65.5 158.5v96h-64v-96q0 -44 12.5 -85t36 -75t55 -61t70.5 -44t82 -21v-130h-128v-64h320v64h-128v130q109 12 182.5 93.5t73.5 192.5v96h-64z" />
    <glyph glyph-name="uniE64D" unicode="&#xe64d;" horiz-adv-x="1025" 
d="M0 396v-192q0 -13 9.5 -22.5t22.5 -9.5h960q13 0 22.5 9.5t9.5 22.5v192q0 13 -9.5 22.5t-22.5 9.5h-960q-13 0 -22.5 -9.5t-9.5 -22.5z" />
    <glyph glyph-name="uniE64E" unicode="&#xe64e;" 
d="M736 812h-448q-40 0 -68 -28t-28 -68v-832q0 -19 7.5 -37t20.5 -31t31 -20.5t37 -7.5h448q40 0 68 28t28 68v832q0 26 -13 48t-35 35t-48 13zM384 764h256v-32h-256v32zM512 -148q-27 0 -45.5 19t-18.5 45.5t18.5 45t45.5 18.5t45.5 -18.5t18.5 -45t-18.5 -45.5
t-45.5 -19zM768 44h-512v640h512v-640z" />
    <glyph glyph-name="uniE64F" unicode="&#xe64f;" 
d="M0 748h1024v-128h-1024v128zM0 556h1024v-128h-1024v128zM0 364h1024v-128h-1024v128zM0 172h1024v-128h-1024v128zM0 -20h1024v-128h-1024v128z" />
    <glyph glyph-name="uniE650" unicode="&#xe650;" horiz-adv-x="1025" 
d="M896 556v128h-896v-704q0 -27 18.5 -45.5t45.5 -18.5h864q40 0 68 28t28 68v544h-128zM832 -20h-768v640h768v-640zM128 492h640v-64h-640v64zM512 364h256v-64h-256v64zM512 236h256v-64h-256v64zM512 108h192v-64h-192v64zM128 364h320v-320h-320v320z" />
    <glyph glyph-name="uniE651" unicode="&#xe651;" 
d="M512 716q-83 0 -159 -31.5t-135 -90.5t-90.5 -135t-31.5 -159t31.5 -159t90.5 -135q39 -39 86 -66.5t100 -41.5t108 -14q83 0 159 31.5t135 90.5t90.5 135t31.5 159t-31.5 159t-90.5 135t-135 90.5t-159 31.5zM512 812q139 0 257 -68.5t186.5 -186.5t68.5 -257
t-68.5 -257t-186.5 -186.5t-257 -68.5t-257 68.5t-186.5 186.5t-68.5 257t68.5 257t186.5 186.5t257 68.5zM448 108h128v-128h-128v128zM448 620h128v-384h-128v384z" />
    <glyph glyph-name="uniE652" unicode="&#xe652;" 
d="M0 -212h512v1024h-512v-1024zM320 684h128v-128h-128v128zM320 428h128v-128h-128v128zM320 172h128v-128h-128v128zM64 684h128v-128h-128v128zM64 428h128v-128h-128v128zM64 172h128v-128h-128v128zM576 492h448v-64h-448v64zM576 -212h128v256h192v-256h128v576h-448
v-576z" />
    <glyph glyph-name="uniE653" unicode="&#xe653;" 
d="M384 172l128 64l448 448l-64 64l-448 -448zM289 -55q-12 25 -24.5 44t-28.5 35t-35 28.5t-44 24.5l99 273l128 78l384 384h-192l-384 -384l-192 -640l640 192l384 384v192l-384 -384l-78 -128z" />
    <glyph glyph-name="uniE654" unicode="&#xe654;" 
d="M704 172q-24 -24 -45 -59.5t-38 -52t-45 -16.5q-23 0 -46.5 9.5t-51 31.5t-45 38.5t-49.5 48.5t-48.5 49.5t-38.5 45t-31.5 51t-9.5 46.5q0 28 16.5 45t52 38t59.5 45q30 30 -6 93t-95 113t-91 50q-28 0 -76 -48t-82 -96l-34 -48q0 -95 81 -256.5t175 -255.5t255.5 -175
t256.5 -81q8 5 21 14t46 34.5t58 48.5t46 50t21 45q0 32 -50 91t-113 95t-93 6z" />
    <glyph glyph-name="uniE655" unicode="&#xe655;" horiz-adv-x="1025" 
d="M1017 236q19 -126 -11 -160q-21 -25 -94.5 -31.5t-140.5 14t-67 65.5q0 14 6 33t10.5 31.5t2 29.5t-16.5 34q-12 13 -29 22.5t-33 14.5t-41.5 7.5t-42.5 3t-48 0.5q-39 0 -60.5 -1t-50 -5.5t-48.5 -14.5t-35 -27q-14 -17 -16.5 -34t2 -29.5t10.5 -31.5t6 -33
q0 -34 -41.5 -54.5t-94 -24t-102 4.5t-64.5 26q-30 34 -11 160q11 66 71 128q41 39 91 65t137 44t202 19h4h2h2q168 -1 267 -34.5t163 -93.5q60 -62 71 -128z" />
    <glyph glyph-name="uniE656" unicode="&#xe656;" 
d="M448 236v448q-122 0 -225 -60t-163 -163t-60 -225t60 -225t163 -163t225 -60t225 60t163 163t60 225q0 53 -12 103.5t-35 96.5zM913 564q-56 112 -163.5 180t-237.5 68v-448z" />
    <glyph glyph-name="uniE657" unicode="&#xe657;" 
d="M864 812q66 0 113 -47t47 -113q0 -53 -32 -96l-64 -64l-224 224l64 64q8 6 16.5 11t18 9t19.5 6.5t20.5 4t21.5 1.5zM64 76l-64 -288l288 64l592 592l-224 224zM716 448l-448 -448l-56 56l448 448z" />
    <glyph glyph-name="uniE658" unicode="&#xe658;" horiz-adv-x="1291" 
d="M1232 812h-384q-20 0 -44 -10t-38 -24l-476 -476q-14 -14 -14 -34t14 -34l412 -412q9 -9 21.5 -12.5t25 0t21.5 12.5l476 476q9 9 17 23.5t12.5 30t4.5 28.5v384q0 20 -14 34t-34 14zM992 428q-40 0 -68 28t-28 68q0 20 7.5 37.5t20.5 30.5t30.5 20.5t37.5 7.5
q16 0 30.5 -5t26.5 -13.5t20.5 -20.5t13.5 -26.5t5 -30.5q0 -20 -7.5 -37.5t-20.5 -30.5t-30.5 -20.5t-37.5 -7.5zM128 268l544 544h-80q-13 0 -28.5 -4.5t-30 -12.5t-23.5 -17l-476 -476q-14 -14 -14 -34t14 -34l412 -412q9 -9 21.5 -12.5t25 0t21.5 12.5l30 30z" />
    <glyph glyph-name="uniE659" unicode="&#xe659;" 
d="M256 748h512v-128h-512v128zM960 556h-896q-26 0 -45 -19t-19 -45v-320q0 -26 19 -45t45 -19h192v-256h512v256h192q26 0 45 19t19 45v320q0 26 -19 45t-45 19zM128 364q-27 0 -45.5 18.5t-18.5 45.5t18.5 45.5t45.5 18.5t45.5 -18.5t18.5 -45.5t-18.5 -45.5t-45.5 -18.5
zM704 -84h-384v320h384v-320z" />
    <glyph glyph-name="uniE65A" unicode="&#xe65a;" 
d="M864 812h-768q-19 0 -37 -7.5t-31 -20.5t-20.5 -31t-7.5 -37v-832q0 -26 13 -48t35 -35t48 -13h768q26 0 48 13t35 35t13 48v832q0 19 -7.5 37t-20.5 31t-31 20.5t-37 7.5zM832 -84h-704v768h704v-768zM256 236h448v-64h-448v64zM256 108h448v-64h-448v64zM320 524
q0 40 28 68t68 28t68 -28t28 -68t-28 -68t-68 -28t-68 28t-28 68zM480 428h-128q-40 0 -68 -19t-28 -45v-64h320v64q0 17 -13 32t-35 23.5t-48 8.5z" />
    <glyph glyph-name="uniE65B" unicode="&#xe65b;" 
d="M704 748l-320 -320h-192l-192 -256q4 1 11.5 3t31 7.5t47 10t56 9t61 6.5t60 1t55.5 -7l-322 -414l422 328q16 -38 18 -85.5t-6 -88.5t-20 -77t-20.5 -56t-9.5 -21l256 192v192l320 320l64 320z" />
    <glyph glyph-name="uniE65C" unicode="&#xe65c;" 
d="M512 748q-18 0 -35.5 -1.5t-35.5 -3.5q0 1 -1 2q21 17 17 38q-3 13 -16 21t-31 8q-8 0 -15 -2q-23 -4 -36 -19t-10 -31q5 -21 30 -28v-3q-152 -43 -249.5 -170.5t-97.5 -290.5q0 -98 38 -186.5t102.5 -153t153 -102.5t186.5 -38t186.5 38t153 102.5t102.5 153t38 186.5
q0 78 -24 151.5t-68.5 132.5t-103.5 103.5t-132.5 68.5t-151.5 24zM365 763q-2 10 8 19t25 13q6 1 12 1q28 0 31 -17q1 -3 0.5 -5.5t-2 -5.5t-3.5 -6l-6 -5q-12 8 -25.5 5.5t-20.5 -14.5q-17 4 -19 15zM769 11q-66 -67 -155 -93l-42 69l-11 -80q-25 -3 -49 -3
q-73 0 -139.5 27.5t-117.5 79.5q-67 66 -93 155l69 42l-80 11q-1 12 -2 24.5t-1 24.5q0 73 27.5 139.5t79.5 117.5q66 67 155 93l42 -69l11 80q25 3 49 3q48 0 94.5 -12.5t87.5 -36t75 -58.5q67 -66 93 -155l-69 -42l80 -11q3 -25 3 -49q-2 -151 -107 -257zM761 517
l-197 -150q-11 6 -23 9t-24 4l-52 107l-3 -119q-10 -4 -18.5 -11t-16.5 -16l-63 23l47 -49q-10 -20 -11 -43l-107 -51l119 -3q0 -1 1 -2l-150 -197l197 150q23 -12 48 -13l51 -107l3 119q20 9 35 27l63 -23l-46 49q9 20 10 43l107 51l-119 3v1l-1 1zM512 367zM492 362
q10 2 20 2h4q2 0 4 -0.5t4 -0.5v0q13 -2 26 -7l-72 -54l-54 -72q-4 9 -6 18q-8 39 13.5 72.5t60.5 41.5zM562 186v0q-14 -8 -30 -12q-10 -2 -20 -2q-6 0 -12 1q-13 1 -26 7l72 54l54 72q4 -9 6 -18q3 -15 1.5 -30t-7.5 -28.5t-15.5 -24.5t-22.5 -19z" />
    <glyph glyph-name="uniE65D" unicode="&#xe65d;" horiz-adv-x="1025" 
d="M914 132q-33 52 -79.5 84t-91.5 36.5t-85 -17.5q-9 -6 -17 -14l-80 124l184 288q24 45 13 94q-10 47 -48 77l-13 8l-217 -340l-217 340l-13 -8q-12 -9 -21.5 -21t-16 -26t-10.5 -30q-5 -25 -1.5 -49t14.5 -45l184 -288l-80 -124q-8 8 -17 14q-56 35 -131 5t-125 -108
t-46 -158.5t60 -116t131 -5.5t125 108l164 258l164 -258q33 -51 79.5 -83.5t91.5 -37t85 17.5q56 36 60 116.5t-46 158.5zM235 12q-21 -33 -46.5 -52t-48.5 -24q-6 -2 -14.5 -1.5t-13.5 3.5q-7 5 -11 15.5t-5 25.5q-2 49 31 102q21 32 46.5 51t48.5 24q5 2 14 1.5t14 -3.5
q3 -2 5 -4.5t4 -6.5t3.5 -8.5t2 -10t1.5 -10.5q2 -50 -31 -102zM480 300q-6 0 -12 2.5t-10.5 7t-7 10t-2.5 12.5t2.5 12.5t7 10t10.5 7t12 2.5q13 0 22.5 -9.5t9.5 -22.5q0 -3 -0.5 -6.5t-1.5 -5.5l-4 -6q-1 -2 -3 -4.5t-5 -4t-5.5 -3t-6 -2t-6.5 -0.5zM864 -21
q-2 -32 -16 -41q-10 -6 -28 -2q-22 5 -48 24t-47 52q-33 52 -31 102q2 31 16 40q4 2 9.5 3t10 0.5t8.5 -1.5q23 -5 48.5 -24t46.5 -51q33 -53 31 -102z" />
    <glyph glyph-name="uniE65E" unicode="&#xe65e;" 
d="M448 108h128v-128h-128v128zM704 556q27 0 45.5 -18.5t18.5 -45.5v-192l-192 -128h-128v64l192 128v64h-320v128h384zM512 716q-83 0 -159 -31.5t-135 -90.5t-90.5 -135t-31.5 -159t31.5 -159t90.5 -135q39 -39 86 -66.5t100 -41.5t108 -14q83 0 159 31.5t135 90.5
t90.5 135t31.5 159t-31.5 159t-90.5 135t-135 90.5t-159 31.5zM512 812q139 0 257 -68.5t186.5 -186.5t68.5 -257t-68.5 -257t-186.5 -186.5t-257 -68.5t-257 68.5t-186.5 186.5t-68.5 257t68.5 257t186.5 186.5t257 68.5z" />
    <glyph glyph-name="uniE65F" unicode="&#xe65f;" horiz-adv-x="1025" 
d="M320 44v768h-128v-768h-160l224 -224l224 224h-160zM928 -212h-256q-19 0 -28 17t1 33l223 334h-196q-13 0 -22.5 9.5t-9.5 22.5t9.5 22.5t22.5 9.5h256q19 0 28 -17t-1 -33l-223 -334h196q13 0 22.5 -9.5t9.5 -22.5t-9.5 -22.5t-22.5 -9.5zM1021 410l-192 384
q-9 18 -29 18t-29 -18l-192 -384q-3 -8 -3 -16t5 -15.5t13 -11.5q6 -3 14 -3q20 0 29 18l55 110h216l55 -110q6 -12 18.5 -16.5t24.5 1.5q4 2 7.5 5t5.5 6.5t3.5 7.5t1.5 8t-0.5 8t-2.5 8zM724 556l76 152l76 -152h-152z" />
    <glyph glyph-name="uniE660" unicode="&#xe660;" 
d="M320 44v768h-128v-768h-160l224 -224l224 224h-160zM928 364h-256q-4 0 -8.5 1t-8 3.5t-6.5 5.5t-5 7q-4 8 -4 16.5t5 16.5l223 334h-196q-9 0 -16 4.5t-11.5 11.5t-4.5 16t4.5 16t11.5 11.5t16 4.5h256q9 0 16.5 -4.5t11.5 -12.5t4 -16.5t-5 -16.5l-223 -334h196
q13 0 22.5 -9.5t9.5 -22.5q0 -9 -4.5 -16t-11.5 -11.5t-16 -4.5zM1021 -166l-192 384q-9 18 -29 18t-29 -18l-192 -384q-6 -12 -1.5 -24.5t16.5 -18.5q6 -3 14 -3q6 0 11.5 2t10 6t7.5 10l55 110h216l55 -110q4 -8 11.5 -13t15.5 -5t16 3q12 6 16.5 18.5t-1.5 24.5zM724 -20
l76 152l76 -152h-152z" />
    <glyph glyph-name="uniE661" unicode="&#xe661;" horiz-adv-x="1025" 
d="M992 -59l-242 206q-38 33 -74 32q92 107 92 249q0 159 -112.5 271.5t-271.5 112.5t-271.5 -112.5t-112.5 -271.5t112.5 -271.5t271.5 -112.5q142 0 249 92q-1 -36 32 -74l206 -242q27 -30 64.5 -32t64 24.5t24.5 64t-32 64.5zM384 172q-106 0 -181 75t-75 181t75 181
t181 75t181 -75t75 -181t-75 -181t-181 -75z" />
    <glyph glyph-name="uniE662" unicode="&#xe662;" 
d="M256 172q2 8 8 21t34 46t66 58t111.5 46t164.5 21v-192l384 256l-384 256v-192q-181 0 -282.5 -95t-101.5 -225zM704 44h-576v384h126q15 18 32 34q66 62 156 94h-442v-640h832v269l-128 -86v-55z" />
    <glyph glyph-name="uniE663" unicode="&#xe663;" 
d="M864 108q-68 0 -115 -49l-431 216q2 12 2 25t-2 25l431 216q22 -23 52 -36t63 -13q43 0 80 21.5t58.5 58.5t21.5 80q0 33 -12.5 62.5t-34 51t-51 34t-62.5 12.5q-66 0 -113 -47t-47 -113q0 -13 2 -25l-431 -216q-47 49 -115 49q-66 0 -113 -47t-47 -113t47 -113t113 -47
q68 0 115 49l431 -216q-2 -12 -2 -25q0 -66 47 -113t113 -47t113 47t47 113t-47 113t-113 47z" />
    <glyph glyph-name="uniE664" unicode="&#xe664;" horiz-adv-x="1025" 
d="M576 364h416l-160 160l192 192l-96 96l-192 -192l-160 160v-416zM576 236v-416l160 160l192 -192l96 96l-192 192l160 160h-416zM448 236h-416l160 -160l-192 -192l96 -96l192 192l160 -160v416zM448 364v416l-160 -160l-192 192l-96 -96l192 -192l-160 -160h416z" />
    <glyph glyph-name="uniE665" unicode="&#xe665;" 
d="M384 684q0 53 37.5 90.5t90.5 37.5t90.5 -37.5t37.5 -90.5t-37.5 -90.5t-90.5 -37.5t-90.5 37.5t-37.5 90.5zM791 300q0 29 14 53t38 38t53 14q17 0 33 -5.5t29 -15t22.5 -22.5t15 -29t5.5 -33q0 -43 -31 -74t-74 -31t-74 31t-31 74zM688 28q0 20 7.5 37.5t20.5 30.5
t30.5 20.5t37.5 7.5q39 0 67 -28t28 -68q0 -19 -7.5 -36.5t-20.5 -30.5t-30.5 -20.5t-36.5 -7.5q-40 0 -68 28t-28 67zM426 -84q0 36 25 61t61 25q23 0 43 -11.5t31.5 -31.5t11.5 -43q0 -36 -25 -61t-61 -25t-61 25t-25 61zM162 28.5q0 32.5 23 55t55.5 22.5t55 -22.5
t22.5 -55t-22.5 -55.5t-55 -23t-55.5 23t-23 55.5zM57 300q0 29 21 50t50 21t50 -21t21 -50t-21 -50t-50 -21t-50 21t-21 50zM176 572q0 26 19 45t45.5 19t45 -19t18.5 -45q0 -27 -18.5 -45.5t-45 -18.5t-45.5 18.5t-19 45.5zM899 572q0 -48 -33.5 -82t-81.5 -34
q-19 0 -37 5.5t-32 16.5t-25 25t-16.5 32t-5.5 37q0 31 15.5 57.5t42 42t58.5 15.5q48 0 81.5 -33.5t33.5 -81.5z" />
    <glyph glyph-name="uniE666" unicode="&#xe666;" 
d="M320 44v768h-128v-768h-160l224 -224l224 224h-160zM448 812h576v-128h-576v128zM448 620h448v-128h-448v128zM448 428h320v-128h-320v128zM448 236h192v-128h-192v128z" />
    <glyph glyph-name="uniE667" unicode="&#xe667;" 
d="M480 748q-98 0 -186.5 -38t-153 -102.5t-102.5 -153t-38 -186.5t38 -186.5t102.5 -153t153 -102.5t186.5 -38t186.5 38t153 102.5t102.5 153t38 186.5t-38 186.5t-102.5 153t-153 102.5t-186.5 38zM752 108q13 62 15 128h128q-3 -33 -10.5 -65t-20.5 -63h-112zM208 428
q-13 -62 -15 -128h-128q5 67 31 128h112zM686 428q14 -62 17 -128h-191v128h174zM512 492v187q11 -3 22 -8.5t21 -12.5q41 -29 74 -84q7 -12 14 -25.5t13 -27.5t11 -29h-155zM331 574q16 27 35 48.5t39 35.5q21 15 43 21v-187h-155q16 45 38 82zM448 428v-128h-191
q1 33 5.5 65t11.5 63h174zM96 108q-26 61 -31 128h128q2 -66 15 -128h-112zM257 236h191v-128h-174q-14 62 -17 128zM448 44v-187q-11 3 -22 8.5t-21 12.5q-41 29 -74 84q-22 37 -38 82h155zM629 -38q-33 -55 -74 -84q-21 -15 -43 -21v187h155q-16 -45 -38 -82zM512 108v128
h191q-3 -67 -17 -128h-174zM767 300q-2 66 -15 128h112q13 -31 20.5 -63t10.5 -65h-128zM831 492h-96q-28 89 -76 151q64 -30 115 -81q7 -6 13 -13t11.5 -13.5t11 -14t11 -14.5t10.5 -15zM186 562q50 51 115 81q-48 -62 -76 -151h-96q25 38 57 70zM129 44h96q28 -89 76 -151
q-64 30 -115 81q-8 8 -15.5 16.5t-14.5 17t-14 18t-13 18.5zM774 -26q-25 -25 -54 -45.5t-61 -35.5q48 62 76 151h96q-12 -19 -26.5 -36.5t-30.5 -33.5z" />
    <glyph glyph-name="uniE668" unicode="&#xe668;" 
d="M512 509q-25 0 -42.5 17.5t-17.5 42.5v179q0 24 17.5 41.5t42.5 17.5t42.5 -17.5t17.5 -41.5v-179q0 -25 -17.5 -42.5t-42.5 -17.5zM512 -185q-15 0 -26 11t-11 26v179q0 16 11 27t26 11q5 0 10 -1.5t9 -4t7.5 -6t6 -7.5t3.5 -9t1 -10v-179q0 -15 -11 -26t-26 -11z
M378 477q-33 0 -49 28l-89 155q-12 20 -6 42.5t26 34t42.5 5.5t34.5 -26l89 -155q8 -14 8 -28.5t-7.5 -27.5t-20.5 -21q-7 -4 -14 -5.5t-14 -1.5zM736 -121q-20 0 -29 17l-90 155q-7 12 -3.5 25.5t16 20t25.5 3t20 -15.5l90 -155q7 -12 3.5 -25.5t-15.5 -20.5q-4 -2 -8.5 -3
t-8.5 -1zM279 382q-4 0 -8.5 1t-9 2.5t-8.5 3.5l-155 90q-19 10 -24.5 31t5.5 40q7 12 19.5 19t25.5 7t26 -7l156 -89q18 -11 23.5 -32t-4.5 -40q-15 -26 -46 -26zM900 46q-8 0 -15 4l-155 90q-11 6 -14 18t3 22.5t18 14t23 -2.5l155 -90q10 -6 13.5 -18t-2.5 -23
q-9 -15 -26 -15zM243 252h-179q-13 0 -24 6t-17.5 17.5t-6.5 24.5q0 8 2.5 15.5t7 13.5t10.5 10.5t13 6.5t15 2h179q20 0 34.5 -14t14.5 -34q0 -31 -28 -44q-11 -4 -21 -4zM960 270h-179q-13 0 -21.5 9t-8.5 21t8.5 21t21.5 9h179q12 0 20.5 -9t8.5 -21t-8.5 -21t-20.5 -9z
M124 31q-26 0 -38 23q-10 16 -5 34t21 27l155 89q16 10 34 5t27 -21t4.5 -34t-20.5 -27l-155 -90q-11 -5 -23 -6zM745 404q-6 0 -10.5 2t-9 5.5t-6.5 7.5q-6 11 -3 23t14 18l155 90q10 6 22 2.5t19 -13.5q3 -6 3.5 -11.5t-1 -11t-5 -10.5t-8.5 -8l-155 -90q-7 -4 -15 -4z
M288 -129q-11 0 -20 6q-15 8 -19.5 24.5t4.5 31.5l89 155q9 15 25.5 19t31 -4.5t19 -24.5t-4.5 -31l-89 -155q-12 -21 -36 -21zM646 503q-8 0 -15 4q-10 6 -13.5 18t2.5 23l90 155q6 10 18 13.5t23 -2.5q7 -5 11 -12t4 -14.5t-4 -14.5l-90 -155q-1 -2 -2 -3.5t-2.5 -3
t-3 -2.5t-3.5 -2t-3.5 -2t-3.5 -1.5t-4 -0.5h-4z" />
    <glyph glyph-name="uniE669" unicode="&#xe669;" horiz-adv-x="1025" 
d="M1024 428h-384l144 144q-13 12 -25.5 22.5t-26.5 20.5t-28.5 18t-29.5 15t-30.5 13t-31.5 10t-32.5 7t-33.5 4.5t-34 1.5q-77 0 -147 -29t-124.5 -83.5t-83.5 -124.5t-29 -147t29 -147t83 -125q37 -36 80.5 -61t92 -38t99.5 -13q77 0 147 29t125 83q8 9 17 19l96 -84
q-71 -82 -171.5 -128.5t-213.5 -46.5q-104 0 -199 40.5t-163.5 109t-109 163.5t-40.5 199t40.5 199t109 163.5t163.5 109t199 40.5q26 0 52 -2.5t51 -8t49 -13t47 -17t45 -21.5t42.5 -25.5t39.5 -29.5t36 -33l150 150v-384z" />
    <glyph glyph-name="uniE66A" unicode="&#xe66a;" 
d="M1024 492l-512 256l-512 -256l512 -256zM512 663l342 -171l-342 -171l-342 171zM921 351l103 -51l-512 -256l-512 256l103 51l409 -204zM921 159l103 -51l-512 -256l-512 256l103 51l409 -204z" />
    <glyph glyph-name="uniE66B" unicode="&#xe66b;" 
d="M1024 415l-354 51l-158 321l-158 -321l-354 -51l256 -250l-60 -352l316 166l316 -166l-60 352zM512 58l-223 -117l42 249l-181 176l250 36l112 227l112 -227l250 -36l-181 -176l42 -249z" />
    <glyph glyph-name="uniE66C" unicode="&#xe66c;" 
d="M1024 415l-354 51l-158 321l-158 -321l-354 -51l256 -250l-60 -352l316 166l316 -166l-60 352z" />
    <glyph glyph-name="uniE66D" unicode="&#xe66d;" 
d="M512 -20q27 0 45.5 -18.5t18.5 -45.5v-64q0 -27 -18.5 -45.5t-45.5 -18.5t-45.5 18.5t-18.5 45.5v64q0 27 18.5 45.5t45.5 18.5zM512 620q-27 0 -45.5 18.5t-18.5 45.5v64q0 27 18.5 45.5t45.5 18.5t45.5 -18.5t18.5 -45.5v-64q0 -27 -18.5 -45.5t-45.5 -18.5zM960 364
q27 0 45.5 -18.5t18.5 -45.5t-18.5 -45.5t-45.5 -18.5h-64q-27 0 -45.5 18.5t-18.5 45.5t18.5 45.5t45.5 18.5h64zM192 300q0 -27 -18.5 -45.5t-45.5 -18.5h-64q-27 0 -45.5 18.5t-18.5 45.5t18.5 45.5t45.5 18.5h64q27 0 45.5 -18.5t18.5 -45.5zM829 74l45 -46
q19 -18 19 -44.5t-19 -45.5q-9 -9 -21 -14t-24 -5t-24 5t-21 14l-46 45q-18 19 -18 45.5t18.5 45t45 18.5t45.5 -18zM195 526l-45 46q-12 12 -16.5 28.5t0 33t16.5 28.5q19 19 45.5 19t44.5 -19l46 -45q18 -19 18 -45.5t-18.5 -45t-45 -18.5t-45.5 18zM829 526
q-19 -18 -45.5 -18t-45 18.5t-18.5 45t18 45.5l46 45q18 19 44.5 19t45.5 -19t19 -45.5t-19 -44.5zM195 74q19 18 45.5 18t45 -18.5t18.5 -45t-18 -45.5l-46 -45q-18 -19 -44.5 -19t-45.5 19q-29 29 -15 68q6 13 15 22zM512 556q-106 0 -181 -75t-75 -181t75 -181t181 -75
t181 75t75 181t-75 181t-181 75zM512 140q-66 0 -113 47t-47 113t47 113t113 47t113 -47t47 -113t-47 -113t-113 -47z" />
    <glyph glyph-name="uniE66E" unicode="&#xe66e;" 
d="M640 665v-136q55 -24 98 -67q94 -93 94 -226t-93.5 -226.5t-226.5 -93.5t-226.5 93.5t-93.5 226.5t94 226q43 43 98 67v136q-140 -41 -230 -160t-90 -269q0 -91 35.5 -174t95.5 -143t143 -95.5t174 -35.5t174 35.5t143 95.5t95.5 143t35.5 174q0 150 -90 269t-230 160z
M448 812h128v-512h-128v512z" />
    <glyph glyph-name="uniE66F" unicode="&#xe66f;" 
d="M960 812h64v-512h-64v512zM0 300h64v-512h-64v512zM320 108h704v-128h-704v-160l-224 224l224 224v-160zM704 492h-704v128h704v160l224 -224l-224 -224v160z" />
    <glyph glyph-name="uniE670" unicode="&#xe670;" 
d="M0 748v-896h1024v896h-1024zM384 172v192h256v-192h-256zM640 108v-192h-256v192h256zM640 620v-192h-256v192h256zM320 620v-192h-256v192h256zM64 364h256v-192h-256v192zM704 364h256v-192h-256v192zM704 428v192h256v-192h-256zM64 108h256v-192h-256v192zM704 -84
v192h256v-192h-256z" />
    <glyph glyph-name="uniE671" unicode="&#xe671;" 
d="M1024 364h-101q-21 134 -117 230t-230 117v101h-128v-101q-88 -14 -162.5 -62t-122.5 -122.5t-62 -162.5h-101v-128h101q21 -134 117 -230t230 -117v-101h128v101q134 21 230 117t117 230h101v128zM793 364h-100q-7 20 -18.5 38.5t-26.5 33.5t-33.5 26.5t-38.5 18.5v100
q81 -19 139.5 -77.5t77.5 -139.5zM512 236q-27 0 -45.5 18.5t-18.5 45.5t18.5 45.5t45.5 18.5t45.5 -18.5t18.5 -45.5t-18.5 -45.5t-45.5 -18.5zM448 581v-100q-41 -14 -72 -45t-45 -72h-100q12 53 43 98t76 76t98 43zM231 236h100q14 -41 45 -72t72 -45v-100
q-32 7 -61.5 21.5t-54.5 34.5t-45 45t-34.5 54.5t-21.5 61.5zM576 19v100q41 14 72 45t45 72h100q-26 -111 -121 -176q-45 -29 -96 -41z" />
    <glyph glyph-name="uniE672" unicode="&#xe672;" 
d="M768 748q79 0 135.5 -56.5t56.5 -135.5v-192h-128v192q0 17 -8.5 32t-23.5 23.5t-32 8.5h-128q-17 0 -32 -8.5t-23.5 -23.5t-8.5 -32v-192h16q20 0 34 -14t14 -34v-480q0 -20 -14 -34t-34 -14h-544q-20 0 -34 14t-14 34v480q0 20 14 34t34 14h400v192q0 79 56.5 135.5
t135.5 56.5h128z" />
    <glyph glyph-name="uniE673" unicode="&#xe673;" 
d="M0 -84h1024v-64h-1024v64zM1024 44v-64h-1024v64l128 256h256v-128h256v128h256zM224 492l288 288l288 -288h-224v-256h-128v256h-224z" />
    <glyph glyph-name="uniE674" unicode="&#xe674;" 
d="M576 105v53q54 31 91 98t37 140q0 45 -0.5 67t-4 59t-10.5 55t-21 42.5t-34 36t-51 20t-71 8.5q-35 0 -63 -5t-48 -18t-34 -25.5t-23 -36.5t-14 -41t-7 -50.5t-2.5 -53t-0.5 -58.5q0 -73 37 -140t91 -98v-53q-107 -8 -195 -43.5t-138.5 -91t-50.5 -118.5h896
q0 63 -50.5 118.5t-138.5 91t-195 43.5z" />
    <glyph glyph-name="uniE675" unicode="&#xe675;" 
d="M960 204l-288 -288l-96 96l-64 -64l160 -160l352 352zM448 44h320v115q-34 20 -74 35t-86.5 25t-95.5 14v53q35 20 64 57t46.5 85t17.5 96q0 45 -0.5 67t-4 59t-10.5 55t-21 42.5t-34 36t-51 20t-71 8.5t-71 -8.5t-51 -20t-34 -36t-21 -42.5t-10.5 -55t-4 -59t-0.5 -67
q0 -73 37 -140t91 -98v-53q-107 -8 -195 -43.5t-138.5 -91t-50.5 -118.5h448v64z" />
    <glyph glyph-name="uniE676" unicode="&#xe676;" 
d="M384 76q0 112 64 202t166 128q13 28 19.5 58t6.5 60q0 45 -0.5 67t-4 59t-10.5 55t-21 42.5t-34 36t-51 20t-71 8.5t-71 -8.5t-51 -20t-34 -36t-21 -42.5t-10.5 -55t-4 -59t-0.5 -67q0 -73 37 -140t91 -98v-53q-107 -8 -195 -43.5t-138.5 -91t-50.5 -118.5h397
q-13 47 -13 96zM736 364q-119 0 -203.5 -84.5t-84.5 -203.5q0 -59 23 -112t61.5 -91.5t91.5 -61.5t112 -23q119 0 203.5 84.5t84.5 203.5q0 122 -88 207q-84 81 -200 81zM896 44h-320v64h320v-64z" />
    <glyph glyph-name="uniE677" unicode="&#xe677;" 
d="M1024 236l-128 256h-192v128q0 26 -19 45t-45 19h-576q-26 0 -45 -19t-19 -45v-512l64 -64h81q-17 -30 -17 -64q0 -53 37.5 -90.5t90.5 -37.5t90.5 37.5t37.5 90.5q0 34 -17 64h354q-17 -30 -17 -64q0 -53 37.5 -90.5t90.5 -37.5t90.5 37.5t37.5 90.5q0 17 -4.5 33.5
t-12.5 30.5h81v192zM704 236v192h133l96 -192h-229z" />
    <glyph glyph-name="uniE678" unicode="&#xe678;" 
d="M512 748q-104 0 -197.5 -39.5t-164.5 -110.5l-150 150v-384h384l-144 144q36 35 78 60t92 38.5t102 13.5q159 0 271.5 -112.5t112.5 -271.5q0 -84 -34.5 -159t-95.5 -129l85 -96q40 35 72 78t54.5 91.5t34.5 103t12 111.5q0 70 -18.5 136t-51.5 122.5t-80 103.5
t-103.5 80t-122.5 51.5t-136 18.5z" />
    <glyph glyph-name="uniE679" unicode="&#xe679;" 
d="M762 -212q22 40 37.5 81.5t24.5 86.5t6.5 87t-15 81t-42 71.5t-72 56t-107.5 36t-146 10.5v-254l-384 384l384 384v-248q98 2 178.5 -17.5t136 -55.5t94 -86.5t55 -109.5t15.5 -124.5t-20 -131t-56 -130.5t-89 -121z" />
    <glyph glyph-name="uniE67A" unicode="&#xe67a;" horiz-adv-x="1025" 
d="M512 719l429 -855h-858zM512 812q-8 0 -16.5 -3t-16 -8.5t-15 -14t-13.5 -19.5l-437 -871q-25 -44 -6.5 -76t69.5 -32h870q51 0 69.5 32t-6.5 76l-437 871q-12 22 -28 33.5t-33 11.5v0zM576 -20q0 -27 -18.5 -45.5t-45 -18.5t-45.5 18.5t-19 45.5t19 45.5t45.5 18.5
t45 -18.5t18.5 -45.5zM512.5 108q-26.5 0 -45.5 18.5t-19 45.5v192q0 27 19 45.5t45.5 18.5t45 -18.5t18.5 -45.5v-192q0 -27 -18.5 -45.5t-45 -18.5z" />
    <glyph glyph-name="uniE67B" unicode="&#xe67b;" 
d="M384 76q0 112 64 202t166 128q13 28 19.5 58t6.5 60q0 45 -0.5 67t-4 59t-10.5 55t-21 42.5t-34 36t-51 20t-71 8.5t-71 -8.5t-51 -20t-34 -36t-21 -42.5t-10.5 -55t-4 -59t-0.5 -67q0 -73 37 -140t91 -98v-53q-107 -8 -195 -43.5t-138.5 -91t-50.5 -118.5h397
q-13 47 -13 96zM736 364q-119 0 -203.5 -84.5t-84.5 -203.5q0 -59 23 -112t61.5 -91.5t91.5 -61.5t112 -23q119 0 203.5 84.5t84.5 203.5q0 122 -88 207q-84 81 -200 81zM896 44h-128v-128h-64v128h-128v64h128v128h64v-128h128v-64z" />
    <glyph glyph-name="uniE67C" unicode="&#xe67c;" horiz-adv-x="1152" 
d="M768 41v53q54 31 91 98t37 140q0 45 -0.5 67t-4 59t-10.5 55t-21 42.5t-34 36t-51 20t-71 8.5q-35 0 -63 -5t-48 -18t-34 -25.5t-23 -36.5t-14 -41t-7 -50.5t-2.5 -53t-0.5 -58.5q0 -73 37 -140t91 -98v-53q-107 -8 -195 -43.5t-138.5 -91t-50.5 -118.5h896
q0 63 -50.5 118.5t-138.5 91t-195 43.5zM327 17q84 54 200 80q-23 27 -41 59q-46 85 -46 176q0 57 1 87t8 73t22 74q44 97 159 119q-9 41 -28 67.5t-57.5 43t-96.5 16.5q-40 0 -71 -8.5t-51 -20t-34 -36t-21 -42.5t-10.5 -55t-4 -59t-0.5 -67q0 -48 17.5 -96t46.5 -85
t64 -57v-53q-107 -8 -195 -43.5t-138.5 -91t-50.5 -118.5h279q22 20 48 37z" />
    <glyph glyph-name="uniE67D" unicode="&#xe67d;" 
d="M320 620q0 80 56 136t136 56t136 -56t56 -136t-56 -136t-136 -56t-136 56t-56 136zM768 364h-35l-199 -404l74 372l-96 96l-96 -96l74 -372l-199 404h-35q-21 0 -38 -3.5t-29.5 -8t-22.5 -15t-16 -18.5t-10.5 -23.5t-7 -26t-3.5 -31t-1 -32.5v-34v-320h768v320v34
q0 12 -1.5 32.5t-3.5 31t-6.5 26t-10.5 23.5t-16 18.5t-22.5 15t-29.5 8t-38 3.5z" />
    <glyph glyph-name="uniE67E" unicode="&#xe67e;" horiz-adv-x="1089" 
d="M890 -110q-9 0 -18 3.5t-16 10.5q-14 14 -14 34t14 34q66 66 101 150.5t35 177.5t-35 177.5t-101 150.5q-14 14 -14 34t14 34t34 14t34 -14q16 -16 30.5 -33t27.5 -34.5t24.5 -36.5t21 -38t18 -39.5t15 -41t12 -42t9 -43t5 -44t1.5 -44.5q0 -112 -42.5 -214.5
t-121.5 -181.5q-3 -3 -6 -5t-6.5 -4t-7 -3t-7 -1.5t-7.5 -0.5zM720 -20q-10 0 -19 4t-15 11q-14 14 -14 33.5t14 33.5q48 49 73 111.5t25 126.5t-25 126.5t-73 111.5q-4 3 -6.5 7t-4.5 8.5t-2.5 9t-0.5 9t0.5 9t2.5 9t4.5 8.5t6.5 7q9 10 21.5 13t24.5 0t21 -13
q31 -30 54.5 -65.5t39.5 -74t24.5 -80.5t8.5 -85q0 -57 -14.5 -112t-43 -104t-69.5 -89q-14 -14 -33 -15v0zM549 71q-9 0 -18 3.5t-16 10.5q-9 9 -12.5 21.5t0 25t12.5 21.5q61 61 61 147t-61 147q-14 14 -14 34t14 34t34 14t34 -14q58 -58 79 -136.5t0 -157t-79 -136.5
q-7 -7 -16 -10.5t-18 -3.5zM416 -148q-13 0 -23 9l-246 247h-115q-13 0 -22.5 9.5t-9.5 22.5v320q0 9 4.5 16t11.5 11.5t16 4.5h115l246 247q16 15 35.5 6.5t19.5 -29.5v-832q0 -4 -1 -7.5t-2.5 -7t-4 -6.5t-5.5 -5t-7 -4q-3 -1 -6 -1.5t-6 -0.5z" />
    <glyph glyph-name="uniE67F" unicode="&#xe67f;" horiz-adv-x="1025" 
d="M992 -59l-242 206q-38 33 -74 32q92 107 92 249q0 159 -112.5 271.5t-271.5 112.5t-271.5 -112.5t-112.5 -271.5t112.5 -271.5t271.5 -112.5q142 0 249 92q-1 -36 32 -74l206 -242q27 -30 64.5 -32t64 24.5t24.5 64t-32 64.5zM384 172q-106 0 -181 75t-75 181t75 181
t181 75t181 -75t75 -181t-75 -181t-181 -75zM448 620h-128v-128h-128v-128h128v-128h128v128h128v128h-128v128z" />
    <glyph glyph-name="uniE680" unicode="&#xe680;" horiz-adv-x="1025" 
d="M992 -59l-242 206q-38 33 -74 32q92 107 92 249q0 159 -112.5 271.5t-271.5 112.5t-271.5 -112.5t-112.5 -271.5t112.5 -271.5t271.5 -112.5q142 0 249 92q-1 -36 32 -74l206 -242q27 -30 64.5 -32t64 24.5t24.5 64t-32 64.5zM384 172q-106 0 -181 75t-75 181t75 181
t181 75t181 -75t75 -181t-75 -181t-181 -75zM192 492h384v-128h-384v128z" />
    <glyph glyph-name="uniE681" unicode="&#xe681;" 
d="M1003 -6l-461 395q34 63 34 135q0 78 -38.5 144.5t-105 105t-144.5 38.5q-43 0 -84 -12l167 -167q18 -18 18 -45t-18 -45l-102 -102q-12 -12 -28.5 -16.5t-33 0t-28.5 16.5l-167 167q-12 -41 -12 -84q0 -119 84.5 -203.5t203.5 -84.5q72 0 135 34l395 -461
q11 -13 26.5 -18t32 -1.5t28.5 16.5l101 101q29 29 13 65q-6 13 -16 22z" />
  </font>
</defs>
</svg>
